<svg id="visual" viewBox="0 0 900 600" width="900" height="600" xmlns="http://www.w3.org/2000/svg" xmlns:xlink="http://www.w3.org/1999/xlink" version="1.1"><rect x="0" y="0" width="900" height="600" fill="#fef2e1"></rect><defs><linearGradient id="grad1_0" x1="33.3%" y1="100%" x2="100%" y2="0%"><stop offset="20%" stop-color="#3ab197" stop-opacity="1"></stop><stop offset="80%" stop-color="#3ab197" stop-opacity="1"></stop></linearGradient></defs><defs><linearGradient id="grad1_1" x1="33.3%" y1="100%" x2="100%" y2="0%"><stop offset="20%" stop-color="#3ab197" stop-opacity="1"></stop><stop offset="80%" stop-color="#98c69a" stop-opacity="1"></stop></linearGradient></defs><defs><linearGradient id="grad1_2" x1="33.3%" y1="100%" x2="100%" y2="0%"><stop offset="20%" stop-color="#d6dab4" stop-opacity="1"></stop><stop offset="80%" stop-color="#98c69a" stop-opacity="1"></stop></linearGradient></defs><defs><linearGradient id="grad1_3" x1="33.3%" y1="100%" x2="100%" y2="0%"><stop offset="20%" stop-color="#d6dab4" stop-opacity="1"></stop><stop offset="80%" stop-color="#fef2e1" stop-opacity="1"></stop></linearGradient></defs><defs><linearGradient id="grad2_0" x1="0%" y1="100%" x2="66.7%" y2="0%"><stop offset="20%" stop-color="#3ab197" stop-opacity="1"></stop><stop offset="80%" stop-color="#3ab197" stop-opacity="1"></stop></linearGradient></defs><defs><linearGradient id="grad2_1" x1="0%" y1="100%" x2="66.7%" y2="0%"><stop offset="20%" stop-color="#98c69a" stop-opacity="1"></stop><stop offset="80%" stop-color="#3ab197" stop-opacity="1"></stop></linearGradient></defs><defs><linearGradient id="grad2_2" x1="0%" y1="100%" x2="66.7%" y2="0%"><stop offset="20%" stop-color="#98c69a" stop-opacity="1"></stop><stop offset="80%" stop-color="#d6dab4" stop-opacity="1"></stop></linearGradient></defs><defs><linearGradient id="grad2_3" x1="0%" y1="100%" x2="66.7%" y2="0%"><stop offset="20%" stop-color="#fef2e1" stop-opacity="1"></stop><stop offset="80%" stop-color="#d6dab4" stop-opacity="1"></stop></linearGradient></defs><g transform="translate(900, 600)"><path d="M-432.7 0C-414.7 -71.4 -396.7 -142.8 -362.9 -209.5C-329.1 -276.2 -279.4 -338.3 -216.3 -374.7C-153.2 -411.1 -76.6 -421.9 0 -432.7L0 0Z" fill="#ede5c9"></path><path d="M-324.5 0C-311 -53.5 -297.5 -107.1 -272.1 -157.1C-246.8 -207.2 -209.6 -253.7 -162.2 -281C-114.9 -308.3 -57.5 -316.4 0 -324.5L0 0Z" fill="#b9d0a4"></path><path d="M-216.3 0C-207.3 -35.7 -198.3 -71.4 -181.4 -104.8C-164.5 -138.1 -139.7 -169.1 -108.2 -187.3C-76.6 -205.6 -38.3 -210.9 0 -216.3L0 0Z" fill="#70bc95"></path><path d="M-108.2 0C-103.7 -17.8 -99.2 -35.7 -90.7 -52.4C-82.3 -69.1 -69.9 -84.6 -54.1 -93.7C-38.3 -102.8 -19.2 -105.5 0 -108.2L0 0Z" fill="#3ab197"></path></g><g transform="translate(0, 0)"><path d="M432.7 0C423.8 79.8 414.9 159.7 374.7 216.3C334.5 273 263.2 306.4 195.5 338.6C127.8 370.8 63.9 401.7 0 432.7L0 0Z" fill="#ede5c9"></path><path d="M324.5 0C317.8 59.9 311.1 119.8 281 162.2C250.9 204.7 197.4 229.8 146.6 254C95.9 278.1 47.9 301.3 0 324.5L0 0Z" fill="#b9d0a4"></path><path d="M216.3 0C211.9 39.9 207.4 79.8 187.3 108.2C167.3 136.5 131.6 153.2 97.8 169.3C63.9 185.4 32 200.9 0 216.3L0 0Z" fill="#70bc95"></path><path d="M108.2 0C105.9 20 103.7 39.9 93.7 54.1C83.6 68.2 65.8 76.6 48.9 84.7C32 92.7 16 100.4 0 108.2L0 0Z" fill="#3ab197"></path></g></svg>