<?xml version="1.0" encoding="utf-8"?>
<!-- Generator: Adobe Illustrator 16.0.0, SVG Export Plug-In . SVG Version: 6.00 Build 0)  -->
<!DOCTYPE svg PUBLIC "-//W3C//DTD SVG 1.1//EN" "http://www.w3.org/Graphics/SVG/1.1/DTD/svg11.dtd">
<svg version="1.1" xmlns="http://www.w3.org/2000/svg" xmlns:xlink="http://www.w3.org/1999/xlink" x="0px" y="0px" width="500px"
	 height="500px" viewBox="0 0 500 500" enable-background="new 0 0 500 500" xml:space="preserve">
<g id="bg">
	<g>
		<g>
			<circle fill="#FAD02C" cx="251.039" cy="262.895" r="223.59"/>
			<g>
				<path fill="none" d="M399.865,151.002c-2.493,1.551-12.457,11.407-31.396,6.485c-18.94-4.923-23.427-24.485-21.932-38.44
					c-11.462,3.987-22.444-6.317-22.444-6.317s-15.438-13.122-5.969-32.062c-20.435,20.933-32.401,13.951-43.383,8.279
					c-4.502,10.775-26.411,16.629-42.152,14.49c-15.741-2.137-27.642-16.317-29.499-31.563c-15.219-4.16-33.777,2.207-45.836,7.74
					c4.43,9.758,12.836,30.748,11.355,46.765c11.464-12.813,18.936-12.315,18.936-12.315s25.457,15.449,32.168,35.885
					c8.207-3.488,16.49,0.499,20.074,4.486c3.583,3.986,25.514,7.975,36.977,0s20.932,0.587,22.926,5.527
					c1.994,4.939,6.254,24.994-4.101,47.612c-10.353,22.618-11.849,25.604-15.337,31.587c9.47-10.963,15.184-11.299,15.184-11.299
					s9.505,10.572,13.359,17.914c4.92-13.876,45.375-70.226,96.241-88.87C402.038,155.356,400.029,153.25,399.865,151.002z"/>
				<path fill="none" d="M429.026,155.559c-0.886,0.658-1.821,1.215-2.79,1.693c0.529,0.327,1.325,1.066,2.79,2.711
					c1.046-1.363,2.027-2.523,2.951-3.525C431.08,156.061,430.1,155.758,429.026,155.559z"/>
				<path fill="#F4BB2A" d="M445.248,155.172c-11.057-24.293-41.401-73.751-112.796-100.395
					C253.246,25.219,177.9,52.579,150.712,68.52c-1.411-2.17-2.559-4.186-2.12-4.416C105.53,80.935,35.535,156.928,29.107,235.561
					c-8.424,126.481,424.091,157.61,441.036,69.144C484.578,229.344,454.484,170.853,445.248,155.172z M308.795,245.777
					c-3.854-7.342-13.359-17.914-13.359-17.914s-5.714,0.336-15.184,11.299c3.488-5.982,4.984-8.969,15.337-31.587
					c10.354-22.618,6.095-42.673,4.101-47.612c-1.994-4.94-11.463-13.502-22.926-5.527s-33.394,3.986-36.977,0
					c-3.584-3.987-11.867-7.975-20.074-4.486c-6.711-20.436-32.168-35.885-32.168-35.885s-7.472-0.498-18.936,12.315
					c1.48-16.017-6.926-37.007-11.355-46.765c12.059-5.533,30.617-11.9,45.836-7.74c1.857,15.245,13.758,29.426,29.499,31.563
					c15.741,2.139,37.65-3.715,42.152-14.49c10.981,5.672,22.948,12.653,43.383-8.279c-9.47,18.939,5.969,32.062,5.969,32.062
					s10.982,10.305,22.444,6.317c-1.495,13.955,2.991,33.518,21.932,38.44c18.939,4.922,28.903-4.935,31.396-6.485
					c0.164,2.248,2.173,4.354,5.171,5.905C354.17,175.552,313.715,231.901,308.795,245.777z M426.236,157.252
					c0.969-0.479,1.904-1.035,2.79-1.693c1.073,0.199,2.054,0.502,2.951,0.879c-0.924,1.002-1.905,2.162-2.951,3.525
					C427.562,158.318,426.766,157.579,426.236,157.252z"/>
			</g>
		</g>
		<g>
			<path fill="#FFFFFF" stroke="#189AB4" stroke-miterlimit="10" d="M140.166,71.201c0,0,29.315-36.881,61.338-40.371
				c9.595-12.46,58.188-45.479,107.157-5.981c15.325,2.493,55.457,14.704,66.417,43.361c5.171,1.602,16.941,6.229,21.801,16.322
				c9.345,3.365,46.97,41.039,54.01,79.246c-2.354,2.218-5.479,2.791-5.479,2.791s-9.281-21.217-17.131-28.077
				c-2.244,8.84-17.196,19.943-25.793,0c-6.729,11.456-24.302,13.534-36.261,5.206c-11.96-8.328-13.69-27.155-1.852-38.186
				c-14.221,6.682-25.182,0.701-31.102-7.896s-4.799-23.674,9.779-26.416c-6.729-6.105-28.738-8.03-33.807-7.815
				c-0.21,9.56-19.085,25.259-37.121,9.56c-6.076,14.953-20.34,22.205-39.374,15.027s-21.193-20.67-21.31-28.271
				c-8.191-2.831-48.136,3.644-67.435,16.981C142.33,72.84,140.166,71.201,140.166,71.201z"/>
			<path fill="#D4F1F4" d="M144.752,76.684c0,0,33.761-21.066,67.436-16.981c-0.154-8.437,5.108-24.067,15.746-27.84
				c10.64-3.773,31.039-2.847,33.268,11.736s-5.279,25.613-21.056,15.612c-4.376-3.833-2.32-13.848,1.7-15.182
				c-5.89,1.07-10.563,10.602-6.264,17.33c4.299,6.729,12.522,9.906,22.241,4.673s11.589-18.316,9.159-28.035
				c-2.431-9.719-19.813-19.625-34.764-14.579c-14.953,5.046-23.737,14.579-24.858,24.671
				C195.212,49.583,163.446,55.938,144.752,76.684z"/>
			<path fill="#D4F1F4" d="M283.43,72.385c0,0,22.174,8.023,26.6-9.305c9.191-0.881,25.57,2.137,35.09,8.15
				c4.566-0.715,8.811,4.932,6.968,8.09c-1.84,3.157-5.204,3.019-4.504-1.631c-4.225,1.296-3.131,4.788-2.102,5.91
				c1.027,1.121,7.568,4.672,11.867-1.683c4.298-6.354-0.561-12.429-3.084-14.672c-2.522-2.243-22.815-15.419-44.723-14.391
				c-0.881-7.103-1.723-13.458-7.516-19.251c2.989,5.98,5.419,13.457,4.392,24.858C305.764,63.508,304.923,73.881,283.43,72.385z"/>
			<path fill="#D4F1F4" d="M356.261,108.188c0,0,0.104-0.07,0.297-0.205c2.784-1.957,24.189-17.527,20.92-31.5
				c4.449,13.846-0.317,20.761-1.905,22.35c4.018-2.15,13.924,0.84,17.381,3.645c3.458,2.803,11.121,10.092,9.813,21.68
				c-1.309,8.504-1.776,12.616-12.057,15.14c-10.278,2.522-17.62-5.233-14.884-15.7c1.988-7.568,7.782-10.093,11.146-8.036
				c-3.738-0.28-8.037,2.149-8.41,8.224c-0.374,6.074,1.121,11.588,8.971,11.774c7.851,0.187,11.214-3.925,11.494-9.812
				c0.28-5.888-1.775-11.402-5.606-14.766c-3.832-3.365-11.214-7.103-18.503-4.393s-11.963,12.522-8.691,21.307
				c-2.43-9.438-3.238-8.036-1.105-16.447c2.133-8.41,2.407-5.628,4.248-7.994C365.706,105.26,358.632,108.759,356.261,108.188z"/>
			<path fill="#D4F1F4" d="M418.559,143.314c0,0,10.561-3.551,6.729-18.223c7.943,6.821,20.246,24.832,20.871,41.479
				c-4.236-13.537-13.639-25.037-17.132-28.077C426.97,144.062,420.988,144.062,418.559,143.314z"/>
			<path fill="none" stroke="#189AB4" stroke-width="3" stroke-miterlimit="10" d="M140.166,71.201c0,0,29.315-36.881,61.338-40.371
				c9.595-12.46,58.188-45.479,107.157-5.981c15.325,2.493,55.457,14.704,66.417,43.361c5.171,1.602,16.941,6.229,21.801,16.322
				c9.345,3.365,46.97,41.039,54.01,79.246c-2.354,2.218-5.479,2.791-5.479,2.791s-9.281-21.217-17.131-28.077
				c-2.244,8.84-17.196,19.943-25.793,0c-6.729,11.456-24.302,13.534-36.261,5.206c-11.96-8.328-13.69-27.155-1.852-38.186
				c-14.221,6.682-25.182,0.701-31.102-7.896s-4.799-23.674,9.779-26.416c-6.729-6.105-28.738-8.03-33.807-7.815
				c-0.21,9.56-19.085,25.259-37.121,9.56c-6.076,14.953-20.34,22.205-39.374,15.027s-21.193-20.67-21.31-28.271
				c-8.191-2.831-48.136,3.644-67.435,16.981C142.33,72.84,140.166,71.201,140.166,71.201z"/>
			<path fill="none" stroke="#189AB4" stroke-miterlimit="10" d="M211.439,59.702c0,0,0.406-37.122,36.665-28.76
				c14.205,3.876,15.269,20.973,10.625,27.563c-4.644,6.591-17.355,6.091-20.905-1.696c-3.551-7.786,3.553-16.758,10.28-13.394"/>
			<path fill="none" stroke="#189AB4" stroke-miterlimit="10" d="M309.244,63.386c0,0,0.432-2.401-0.449-8.383
				c7.342-1.121,40.534,3.976,49.17,18.81c4.897,8.852-6.085,20.428-13.63,12.49c-2.031-1.956-4.274-6.348,0.585-9.806
				c1.869-1.402,2.522,0.561,1.683,1.589c-0.842,1.027-1.215,2.43-0.374,3.363c0.842,0.936,3.363,0.936,4.485-0.654
				c1.121-1.588,3.084-9.749-7.663-9.594"/>
			<path fill="none" stroke="#189AB4" stroke-miterlimit="10" d="M375.291,68.211c7.289,30.777-10.918,37.303-10.918,37.303
				s13.359-8.738,26.297,0c12.938,8.736,9.117,23.83,6.916,27.824c-2.202,3.996-8.277,6.035-14.165,5.155
				c-5.887-0.88-8.93-6.767-8.343-11.907c0.586-5.139,2.549-10.466,8.25-10.279c5.7,0.188,6.168,5.607,6.168,5.607"/>
		</g>
		<path fill="none" stroke="#666666" stroke-width="3" stroke-miterlimit="10" d="M315.319,278.569"/>
		<g>
			<path fill="#0FB1A1" d="M324.097,481.712c0,0,205.856-34.216,153.523-331.763c-45.604,9.719-55.691,28.714-55.691,28.714
				s25.341,91.421,9.304,159.007S378.033,449.765,324.097,481.712z"/>
			<path fill="none" stroke="#FFFFFF" stroke-width="5" stroke-linecap="round" stroke-miterlimit="10" d="M476.011,165.275
				c0,0-15.771,93.329-43.417,133.347"/>
			
				<line fill="none" stroke="#FFFFFF" stroke-width="5" stroke-linecap="round" stroke-miterlimit="10" x1="449.5" y1="194.39" x2="456.815" y2="244.162"/>
			
				<line fill="none" stroke="#FFFFFF" stroke-width="5" stroke-linecap="round" stroke-miterlimit="10" x1="447.341" y1="270.313" x2="470.144" y2="251.882"/>
			
				<line fill="none" stroke="#FFFFFF" stroke-width="5" stroke-linecap="round" stroke-miterlimit="10" x1="429.026" y1="334.021" x2="461.546" y2="304.704"/>
			
				<line fill="none" stroke="#FFFFFF" stroke-width="5" stroke-linecap="round" stroke-miterlimit="10" x1="403.233" y1="399.045" x2="424.863" y2="383.202"/>
			<path fill="none" stroke="#FFFFFF" stroke-width="5" stroke-miterlimit="10" d="M390.149,453.104"/>
			<path fill="none" stroke="#FFFFFF" stroke-width="5" stroke-miterlimit="10" d="M364.731,453.104"/>
		</g>
		<g>
			<path fill="#2C8887" d="M313.96,486.341c0,0,183.845-68.001,104.599-325.178c-45.604,19.438-81.918,49.987-112.729,103.118
				C325.856,301.714,352.153,377.158,313.96,486.341z"/>
			<path fill="none" stroke="#FFFFFF" stroke-width="5" stroke-linecap="round" stroke-miterlimit="10" d="M409.339,190.07
				c0,0-8.453,65.35-77.741,157.276"/>
			
				<line fill="none" stroke="#FFFFFF" stroke-width="5" stroke-linecap="round" stroke-miterlimit="10" x1="389.068" y1="251.882" x2="376.717" y2="203.845"/>
			
				<line fill="none" stroke="#FFFFFF" stroke-width="5" stroke-linecap="round" stroke-miterlimit="10" x1="331.598" y1="268.691" x2="340.951" y2="334.489"/>
			
				<line fill="none" stroke="#FFFFFF" stroke-width="5" stroke-linecap="round" stroke-miterlimit="10" x1="372.109" y1="285.545" x2="413.357" y2="257.808"/>
			
				<line fill="none" stroke="#FFFFFF" stroke-width="5" stroke-linecap="round" stroke-miterlimit="10" x1="332.452" y1="355.552" x2="399.866" y2="328.764"/>
			
				<line fill="none" stroke="#FFFFFF" stroke-width="5" stroke-linecap="round" stroke-miterlimit="10" x1="331.598" y1="419.834" x2="379.588" y2="399.045"/>
		</g>
		<g>
			<path fill="#46AD6D" d="M144.005,470.797c0,0,5.167-167.839,149.206-231.635c79.247,113.637,22.992,246.431,22.992,246.431
				S234.53,514.53,144.005,470.797z"/>
			<path fill="none" stroke="#FFFFFF" stroke-width="5" stroke-linecap="round" stroke-miterlimit="10" d="M282.501,270.313
				c0,0-31.367,86.688-65.212,218.939"/>
			
				<line fill="none" stroke="#FFFFFF" stroke-width="5" stroke-linecap="round" stroke-miterlimit="10" x1="234.78" y1="313.633" x2="250.987" y2="368.218"/>
			
				<line fill="none" stroke="#FFFFFF" stroke-width="5" stroke-linecap="round" stroke-miterlimit="10" x1="206.814" y1="377.365" x2="232.611" y2="432.382"/>
			
				<line fill="none" stroke="#FFFFFF" stroke-width="5" stroke-linecap="round" stroke-miterlimit="10" x1="178.328" y1="439.023" x2="195.599" y2="484.963"/>
			
				<line fill="none" stroke="#FFFFFF" stroke-width="5" stroke-linecap="round" stroke-miterlimit="10" x1="257.9" y1="346.841" x2="291.604" y2="317.306"/>
			
				<line fill="none" stroke="#FFFFFF" stroke-width="5" stroke-linecap="round" stroke-miterlimit="10" x1="236.077" y1="420.135" x2="289.224" y2="384.019"/>
			
				<line fill="none" stroke="#FFFFFF" stroke-width="5" stroke-linecap="round" stroke-miterlimit="10" x1="284.737" y1="450.985" x2="232.611" y2="491.037"/>
		</g>
		
			<line fill="#00D2D3" stroke="#01A3A4" stroke-width="3" stroke-miterlimit="10" x1="76.971" y1="390.673" x2="99.674" y2="377.365"/>
		<g>
			<g>
				<g>
					<path fill="#9CCC4C" d="M164.287,148.224c0,0,0.267-56.214-24.121-93.221C78.029,82.664-68.348,274.805,82.884,427.242
						C83.567,383.03,95.047,207.428,164.287,148.224z"/>
				</g>
				<path fill="none" stroke="#FFFFFF" stroke-width="5" stroke-linecap="round" stroke-miterlimit="10" d="M126.245,87.898
					c0,0-41.646,63.4-24.312,187.077"/>
				
					<line fill="#9ACC4C" stroke="#FFFFFF" stroke-width="5" stroke-linecap="round" stroke-miterlimit="10" x1="106.66" y1="138.695" x2="134.968" y2="114.064"/>
				<line fill="#9ACC4C" x1="99.51" y1="200.799" x2="131.498" y2="191.459"/>
				
					<line fill="#9ACC4C" stroke="#FFFFFF" stroke-width="5" stroke-linecap="round" stroke-miterlimit="10" x1="101.818" y1="162.618" x2="93.75" y2="112.732"/>
				
					<line fill="#9ACC4C" stroke="#FFFFFF" stroke-width="5" stroke-linecap="round" stroke-miterlimit="10" x1="97.712" y1="226.699" x2="68.928" y2="169.134"/>
				
					<line fill="#9ACC4C" stroke="#FFFFFF" stroke-width="5" stroke-linecap="round" stroke-miterlimit="10" x1="95.225" y1="307.106" x2="41.766" y2="248.627"/>
				
					<line fill="#9ACC4C" stroke="#FFFFFF" stroke-width="5" stroke-linecap="round" stroke-miterlimit="10" x1="87.494" y1="360.344" x2="46.5" y2="336.095"/>
			</g>
		</g>
		<g>
			<path fill="#7EBA6F" d="M242.777,270.934c0,0-0.33-100.674-56.287-146.777C102.123,174.744,74.108,351.983,78.461,423.504
				c20.75,20.071,39.089,34.504,68.928,49.583C149.565,437.078,200.318,300.46,242.777,270.934z"/>
			<path fill="none" stroke="#FFFFFF" stroke-width="5" stroke-linecap="round" stroke-miterlimit="10" d="M179.746,151.002
				c0,0-43.894,155.217-20.911,274.45"/>
			
				<line fill="#00D2D3" stroke="#FFFFFF" stroke-width="5" stroke-linecap="round" stroke-miterlimit="10" x1="161.297" y1="245.777" x2="203.136" y2="200.376"/>
			
				<line fill="#00D2D3" stroke="#FFFFFF" stroke-width="5" stroke-linecap="round" stroke-miterlimit="10" x1="152.586" y1="328.764" x2="209.977" y2="263.832"/>
			
				<line fill="#00D2D3" stroke="#FFFFFF" stroke-width="5" stroke-linecap="round" stroke-miterlimit="10" x1="158.152" y1="261.51" x2="142.563" y2="197.917"/>
			
				<line fill="#00D2D3" stroke="#FFFFFF" stroke-width="5" stroke-linecap="round" stroke-miterlimit="10" x1="152.445" y1="365.92" x2="115.659" y2="291.743"/>
			
				<line fill="#00D2D3" stroke="#FFFFFF" stroke-width="5" stroke-linecap="round" stroke-miterlimit="10" x1="151.067" y1="452.355" x2="106.06" y2="381.495"/>
		</g>
		<g>
			<path fill="#E2CBBE" stroke="#725C51" stroke-width="4" stroke-miterlimit="10" d="M65.99,407.997
				c73.359,84.515,162.633,89.798,212.926,84.299c14.849-1.869,26.268-4.674,33.316-6.306
				c-5.024-44.863-51.174-104.632-63.38-118.852c-32.895-35.127-26.54-74.771-21.537-86.856
				c50.979-29.28,67.141-87.346,66.783-105.605c-3.722-20.503-13.453-14.153-21.976-10.058c-16.354,8.688-29.676,0.596-38.574-4.096
				c-16.799-12.603-83.754,11.854-92.51,18.756c-1.653-6.556-23.018-11.762-34.203,4.097s4.526,33.403,4.526,33.403
				C85.516,260.292,70.836,354.143,65.99,407.997z"/>
			<path fill="#D6BBAA" d="M225.5,278.569c0,0-29.75,23.021-65.098-3.594C191.25,303,240.166,453.789,227.315,490.635
				c39.479,3.451,74.38-3.38,83.018-5.968c-3.833-20.532-13.88-50.97-42.499-89.005C242.884,362.503,208.25,332.073,225.5,278.569z"
				/>
			<path fill="#D6BBAA" d="M114.168,178.828c0,0,14.061-1.208,18.298,8.51c2.99-2.242,8.368-5.171,8.368-5.171
				S134.968,168.334,114.168,178.828z"/>
			<path fill="#D6BBAA" d="M118.834,204.834c0,0,6.146-11.021,9.27-13.264c-6.348-3.739-11.936,0-11.936,0
				S109.834,198.366,118.834,204.834z"/>
			<path fill="#4D4D4D" d="M293.521,167.331c-3.43-9.991-10.42-9.345-16.164-5.562c0,0-9.565,6.088-2.837,16.945
				s19.562,7.741,19.562,7.741S297.82,179.854,293.521,167.331z"/>
			<path fill="none" stroke="#725C51" stroke-width="3" stroke-linecap="round" stroke-miterlimit="10" d="M253.338,202.78
				c0,0,3.988,14.454,18.441,4.734"/>
		</g>
	</g>
</g>
<g id="bear-bak_1_" display="none">
</g>
</svg>
