<?xml version="1.0" encoding="utf-8"?>
<!-- Generator: Adobe Illustrator 16.0.0, SVG Export Plug-In . SVG Version: 6.00 Build 0)  -->
<!DOCTYPE svg PUBLIC "-//W3C//DTD SVG 1.1//EN" "http://www.w3.org/Graphics/SVG/1.1/DTD/svg11.dtd">
<svg version="1.1" xmlns="http://www.w3.org/2000/svg" xmlns:xlink="http://www.w3.org/1999/xlink" x="0px" y="0px" width="500px"
	 height="500px" viewBox="0 0 500 500" enable-background="new 0 0 500 500" xml:space="preserve">
<g id="bg">
	<g>
		<circle fill="#E8E8E8" cx="250.039" cy="263.895" r="223.59"/>
		<g>
			<path fill="none" d="M398.865,152.001c-2.493,1.552-12.457,11.408-31.396,6.486c-18.94-4.922-23.427-24.485-21.932-38.44
				c-11.462,3.987-22.444-6.318-22.444-6.318s-15.438-13.123-5.969-32.062c-20.435,20.933-32.401,13.952-43.383,8.28
				c-4.502,10.776-26.411,16.629-42.152,14.491c-15.741-2.137-27.642-16.318-29.499-31.563c-15.219-4.16-33.777,2.208-45.836,7.741
				c4.43,9.757,12.836,30.748,11.355,46.764c11.464-12.813,18.936-12.316,18.936-12.316s25.457,15.45,32.168,35.885
				c8.207-3.488,16.49,0.499,20.074,4.486c3.583,3.987,25.514,7.974,36.977,0c11.463-7.975,20.932,0.587,22.926,5.527
				c1.994,4.939,6.254,24.995-4.101,47.613c-10.353,22.618-11.849,25.605-15.337,31.587c9.47-10.963,15.184-11.299,15.184-11.299
				s9.505,10.572,13.359,17.914c4.92-13.876,45.375-70.226,96.241-88.87C401.038,156.356,399.029,154.25,398.865,152.001z"/>
			<path fill="none" d="M428.026,156.558c-0.886,0.658-1.821,1.215-2.79,1.694c0.529,0.327,1.325,1.066,2.79,2.71
				c1.046-1.363,2.027-2.523,2.951-3.524C430.08,157.061,429.1,156.758,428.026,156.558z"/>
			<path fill="#DDDDDB" d="M444.248,156.172c-11.057-24.293-41.401-73.751-112.796-100.395
				C252.246,26.219,176.9,53.579,149.712,69.52c-1.411-2.169-2.559-4.186-2.12-4.416C104.53,81.935,34.535,157.927,28.107,236.561
				c-8.424,126.481,424.091,157.61,441.036,69.143C483.578,230.344,453.484,171.853,444.248,156.172z M307.795,246.777
				c-3.854-7.342-13.359-17.914-13.359-17.914s-5.714,0.335-15.184,11.299c3.488-5.982,4.984-8.969,15.337-31.587
				c10.354-22.618,6.095-42.673,4.101-47.613c-1.994-4.94-11.463-13.501-22.926-5.527c-11.463,7.974-33.394,3.987-36.977,0
				c-3.584-3.987-11.867-7.975-20.074-4.486c-6.711-20.435-32.168-35.885-32.168-35.885s-7.472-0.498-18.936,12.316
				c1.48-16.016-6.926-37.007-11.355-46.764c12.059-5.534,30.617-11.901,45.836-7.741c1.857,15.246,13.758,29.426,29.499,31.563
				c15.741,2.139,37.65-3.715,42.152-14.491c10.981,5.672,22.948,12.653,43.383-8.28c-9.47,18.939,5.969,32.062,5.969,32.062
				s10.982,10.305,22.444,6.318c-1.495,13.955,2.991,33.518,21.932,38.44c18.939,4.922,28.903-4.934,31.396-6.486
				c0.164,2.249,2.173,4.355,5.171,5.906C353.17,176.552,312.715,232.901,307.795,246.777z M425.236,158.252
				c0.969-0.479,1.904-1.036,2.79-1.694c1.073,0.2,2.054,0.503,2.951,0.88c-0.924,1.001-1.905,2.161-2.951,3.524
				C426.562,159.319,425.766,158.579,425.236,158.252z"/>
		</g>
	</g>
</g>
<g id="cloud">
	<g>
		<path fill="#FFFFFF" stroke="#189AB4" stroke-miterlimit="10" d="M139.166,72.202c0,0,29.315-36.882,61.338-40.371
			c9.595-12.46,58.188-45.479,107.157-5.981c15.325,2.493,55.457,14.704,66.417,43.361c5.171,1.601,16.941,6.229,21.801,16.323
			c9.345,3.364,46.97,41.039,54.01,79.246c-2.354,2.217-5.479,2.791-5.479,2.791s-9.281-21.217-17.131-28.078
			c-2.244,8.84-17.196,19.943-25.793,0c-6.729,11.456-24.302,13.534-36.261,5.206c-11.96-8.329-13.69-27.155-1.852-38.186
			c-14.221,6.682-25.182,0.702-31.102-7.896c-5.92-8.598-4.799-23.674,9.779-26.416c-6.729-6.106-28.738-8.031-33.807-7.816
			c-0.21,9.56-19.085,25.259-37.121,9.56c-6.076,14.952-20.34,22.205-39.374,15.027c-19.034-7.178-21.193-20.67-21.31-28.271
			c-8.191-2.831-48.136,3.644-67.435,16.981C141.33,73.84,139.166,72.202,139.166,72.202z"/>
		<path fill="#F2F2F2" d="M143.752,77.684c0,0,33.761-21.066,67.436-16.981c-0.154-8.437,5.108-24.067,15.746-27.84
			c10.64-3.773,31.039-2.847,33.268,11.736s-5.279,25.613-21.056,15.612c-4.376-3.833-2.32-13.848,1.7-15.182
			c-5.89,1.07-10.563,10.602-6.264,17.33s12.522,9.906,22.241,4.672s11.589-18.316,9.159-28.035
			c-2.431-9.719-19.813-19.625-34.764-14.579c-14.953,5.046-23.737,14.579-24.858,24.671
			C194.212,50.583,162.446,56.938,143.752,77.684z"/>
		<path fill="#F2F2F2" d="M282.43,73.385c0,0,22.174,8.023,26.6-9.305c9.191-0.881,25.57,2.136,35.09,8.15
			c4.566-0.714,8.811,4.932,6.968,8.09c-1.84,3.158-5.204,3.019-4.504-1.63c-4.225,1.296-3.131,4.788-2.102,5.91
			c1.027,1.122,7.568,4.672,11.867-1.682c4.298-6.354-0.561-12.429-3.084-14.672c-2.522-2.243-22.815-15.419-44.723-14.391
			c-0.881-7.103-1.723-13.458-7.516-19.251c2.989,5.98,5.419,13.457,4.392,24.857C304.764,64.507,303.923,74.88,282.43,73.385z"/>
		<path fill="#F2F2F2" d="M355.261,109.187c0,0,0.104-0.07,0.297-0.205c2.784-1.957,24.189-17.527,20.92-31.499
			c4.449,13.845-0.317,20.76-1.905,22.349c4.018-2.15,13.924,0.84,17.381,3.644c3.458,2.804,11.121,10.093,9.813,21.68
			c-1.309,8.504-1.776,12.616-12.057,15.14c-10.278,2.523-17.62-5.233-14.884-15.7c1.988-7.569,7.782-10.093,11.146-8.036
			c-3.738-0.281-8.037,2.149-8.41,8.224c-0.374,6.074,1.121,11.587,8.971,11.774c7.851,0.187,11.214-3.925,11.494-9.812
			c0.28-5.887-1.775-11.401-5.606-14.766c-3.832-3.364-11.214-7.102-18.503-4.392s-11.963,12.522-8.691,21.307
			c-2.43-9.438-3.238-8.036-1.105-16.447c2.133-8.411,2.407-5.628,4.248-7.994C364.706,106.26,357.632,109.759,355.261,109.187z"/>
		<path fill="#F2F2F2" d="M417.559,144.314c0,0,10.561-3.551,6.729-18.223c7.943,6.822,20.246,24.833,20.871,41.479
			c-4.236-13.538-13.639-25.038-17.132-28.078C425.97,145.062,419.988,145.062,417.559,144.314z"/>
		<path fill="none" stroke="#C1C1C1" stroke-width="3" stroke-miterlimit="10" d="M139.166,72.202c0,0,29.315-36.882,61.338-40.371
			c9.595-12.46,58.188-45.479,107.157-5.981c15.325,2.493,55.457,14.704,66.417,43.361c5.171,1.601,16.941,6.229,21.801,16.323
			c9.345,3.364,46.97,41.039,54.01,79.246c-2.354,2.217-5.479,2.791-5.479,2.791s-9.281-21.217-17.131-28.078
			c-2.244,8.84-17.196,19.943-25.793,0c-6.729,11.456-24.302,13.534-36.261,5.206c-11.96-8.329-13.69-27.155-1.852-38.186
			c-14.221,6.682-25.182,0.702-31.102-7.896c-5.92-8.598-4.799-23.674,9.779-26.416c-6.729-6.106-28.738-8.031-33.807-7.816
			c-0.21,9.56-19.085,25.259-37.121,9.56c-6.076,14.952-20.34,22.205-39.374,15.027c-19.034-7.178-21.193-20.67-21.31-28.271
			c-8.191-2.831-48.136,3.644-67.435,16.981C141.33,73.84,139.166,72.202,139.166,72.202z"/>
		<path fill="none" stroke="#C1C1C1" stroke-miterlimit="10" d="M210.439,60.702c0,0,0.406-37.122,36.665-28.76
			c14.205,3.876,15.269,20.973,10.625,27.563c-4.644,6.591-17.355,6.091-20.905-1.696c-3.551-7.786,3.553-16.758,10.28-13.394"/>
		<path fill="none" stroke="#C1C1C1" stroke-miterlimit="10" d="M308.244,64.386c0,0,0.432-2.402-0.449-8.383
			c7.342-1.121,40.534,3.976,49.17,18.81c4.897,8.852-6.085,20.428-13.63,12.491c-2.031-1.957-4.274-6.349,0.585-9.806
			c1.869-1.402,2.522,0.561,1.683,1.588c-0.842,1.028-1.215,2.43-0.374,3.364c0.842,0.935,3.363,0.935,4.485-0.654
			c1.121-1.589,3.084-9.75-7.663-9.594"/>
		<path fill="none" stroke="#C1C1C1" stroke-miterlimit="10" d="M374.291,69.211c7.289,30.777-10.918,37.302-10.918,37.302
			s13.359-8.738,26.297,0c12.938,8.737,9.117,23.83,6.916,27.825c-2.202,3.995-8.277,6.035-14.165,5.155
			c-5.887-0.879-8.93-6.767-8.343-11.907c0.586-5.14,2.549-10.466,8.25-10.279c5.7,0.187,6.168,5.606,6.168,5.606"/>
	</g>
</g>
<g id="leaf">
	<path fill="none" stroke="#666666" stroke-width="3" stroke-miterlimit="10" d="M314.319,279.569"/>
	<g>
		<path fill="#797A7A" d="M323.097,482.712c0,0,205.856-34.216,153.523-331.763c-45.604,9.719-55.691,28.714-55.691,28.714
			s25.341,91.421,9.304,159.007S377.033,450.765,323.097,482.712z"/>
		<path fill="none" stroke="#FFFFFF" stroke-width="5" stroke-linecap="round" stroke-miterlimit="10" d="M475.011,166.275
			c0,0-15.771,93.33-43.417,133.347"/>

			<line fill="none" stroke="#FFFFFF" stroke-width="5" stroke-linecap="round" stroke-miterlimit="10" x1="448.5" y1="195.39" x2="455.815" y2="245.162"/>

			<line fill="none" stroke="#FFFFFF" stroke-width="5" stroke-linecap="round" stroke-miterlimit="10" x1="446.341" y1="271.313" x2="469.144" y2="252.882"/>

			<line fill="none" stroke="#FFFFFF" stroke-width="5" stroke-linecap="round" stroke-miterlimit="10" x1="428.026" y1="335.021" x2="460.546" y2="305.704"/>

			<line fill="none" stroke="#FFFFFF" stroke-width="5" stroke-linecap="round" stroke-miterlimit="10" x1="402.233" y1="400.045" x2="423.863" y2="384.202"/>
		<path fill="none" stroke="#FFFFFF" stroke-width="5" stroke-miterlimit="10" d="M389.149,454.104"/>
		<path fill="none" stroke="#FFFFFF" stroke-width="5" stroke-miterlimit="10" d="M363.731,454.104"/>
	</g>
	<g>
		<path fill="#666666" d="M312.96,487.341c0,0,183.845-68.001,104.599-325.178c-45.604,19.438-81.918,49.988-112.729,103.118
			C324.856,302.714,351.153,378.158,312.96,487.341z"/>
		<path fill="none" stroke="#FFFFFF" stroke-width="5" stroke-linecap="round" stroke-miterlimit="10" d="M408.339,191.071
			c0,0-8.453,65.349-77.741,157.276"/>

			<line fill="none" stroke="#FFFFFF" stroke-width="5" stroke-linecap="round" stroke-miterlimit="10" x1="388.068" y1="252.882" x2="375.717" y2="204.845"/>

			<line fill="none" stroke="#FFFFFF" stroke-width="5" stroke-linecap="round" stroke-miterlimit="10" x1="330.598" y1="269.691" x2="339.951" y2="335.489"/>

			<line fill="none" stroke="#FFFFFF" stroke-width="5" stroke-linecap="round" stroke-miterlimit="10" x1="371.109" y1="286.545" x2="412.357" y2="258.808"/>

			<line fill="none" stroke="#FFFFFF" stroke-width="5" stroke-linecap="round" stroke-miterlimit="10" x1="331.452" y1="356.552" x2="398.866" y2="329.764"/>

			<line fill="none" stroke="#FFFFFF" stroke-width="5" stroke-linecap="round" stroke-miterlimit="10" x1="330.598" y1="420.834" x2="378.588" y2="400.045"/>
	</g>
	<g>
		<path fill="#999999" d="M143.005,471.797c0,0,5.167-167.839,149.206-231.634c79.247,113.636,22.992,246.43,22.992,246.43
			S233.53,515.53,143.005,471.797z"/>
		<path fill="none" stroke="#FFFFFF" stroke-width="5" stroke-linecap="round" stroke-miterlimit="10" d="M281.501,271.313
			c0,0-31.367,86.688-65.212,218.939"/>

			<line fill="none" stroke="#FFFFFF" stroke-width="5" stroke-linecap="round" stroke-miterlimit="10" x1="233.78" y1="314.633" x2="249.987" y2="369.218"/>

			<line fill="none" stroke="#FFFFFF" stroke-width="5" stroke-linecap="round" stroke-miterlimit="10" x1="205.814" y1="378.365" x2="231.611" y2="433.382"/>

			<line fill="none" stroke="#FFFFFF" stroke-width="5" stroke-linecap="round" stroke-miterlimit="10" x1="177.328" y1="440.023" x2="194.599" y2="485.963"/>

			<line fill="none" stroke="#FFFFFF" stroke-width="5" stroke-linecap="round" stroke-miterlimit="10" x1="256.9" y1="347.841" x2="290.604" y2="318.306"/>

			<line fill="none" stroke="#FFFFFF" stroke-width="5" stroke-linecap="round" stroke-miterlimit="10" x1="235.077" y1="421.135" x2="288.224" y2="385.019"/>

			<line fill="none" stroke="#FFFFFF" stroke-width="5" stroke-linecap="round" stroke-miterlimit="10" x1="283.737" y1="451.985" x2="231.611" y2="492.037"/>
	</g>

		<line fill="#00D2D3" stroke="#01A3A4" stroke-width="3" stroke-miterlimit="10" x1="75.971" y1="391.673" x2="98.674" y2="378.365"/>
	<g>
		<g>
			<g>
				<path fill="#C6C6C6" d="M163.287,149.224c0,0,0.267-56.214-24.121-93.221C77.029,83.665-69.348,275.805,81.884,428.242
					C82.567,384.03,94.047,208.428,163.287,149.224z"/>
			</g>
			<path fill="none" stroke="#FFFFFF" stroke-width="5" stroke-linecap="round" stroke-miterlimit="10" d="M125.245,88.898
				c0,0-41.646,63.401-24.312,187.078"/>

				<line fill="#9ACC4C" stroke="#FFFFFF" stroke-width="5" stroke-linecap="round" stroke-miterlimit="10" x1="105.66" y1="139.695" x2="133.968" y2="115.064"/>
			<line fill="#9ACC4C" x1="98.51" y1="201.798" x2="130.498" y2="192.459"/>

				<line fill="#9ACC4C" stroke="#FFFFFF" stroke-width="5" stroke-linecap="round" stroke-miterlimit="10" x1="100.818" y1="163.618" x2="92.75" y2="113.732"/>

				<line fill="#9ACC4C" stroke="#FFFFFF" stroke-width="5" stroke-linecap="round" stroke-miterlimit="10" x1="96.712" y1="227.699" x2="67.928" y2="170.134"/>

				<line fill="#9ACC4C" stroke="#FFFFFF" stroke-width="5" stroke-linecap="round" stroke-miterlimit="10" x1="94.225" y1="308.106" x2="40.766" y2="249.627"/>

				<line fill="#9ACC4C" stroke="#FFFFFF" stroke-width="5" stroke-linecap="round" stroke-miterlimit="10" x1="86.494" y1="361.344" x2="45.5" y2="337.095"/>
		</g>
	</g>
	<g>
		<path fill="#999999" d="M241.777,271.934c0,0-0.33-100.674-56.287-146.777C101.123,175.745,73.108,352.983,77.461,424.504
			c20.75,20.071,39.089,34.504,68.928,49.583C148.565,438.078,199.318,301.46,241.777,271.934z"/>
		<path fill="none" stroke="#FFFFFF" stroke-width="5" stroke-linecap="round" stroke-miterlimit="10" d="M178.746,152.002
			c0,0-43.894,155.217-20.911,274.45"/>

			<line fill="#00D2D3" stroke="#FFFFFF" stroke-width="5" stroke-linecap="round" stroke-miterlimit="10" x1="160.297" y1="246.777" x2="202.136" y2="201.376"/>

			<line fill="#00D2D3" stroke="#FFFFFF" stroke-width="5" stroke-linecap="round" stroke-miterlimit="10" x1="151.586" y1="329.764" x2="208.977" y2="264.832"/>

			<line fill="#00D2D3" stroke="#FFFFFF" stroke-width="5" stroke-linecap="round" stroke-miterlimit="10" x1="157.152" y1="262.51" x2="141.563" y2="198.917"/>

			<line fill="#00D2D3" stroke="#FFFFFF" stroke-width="5" stroke-linecap="round" stroke-miterlimit="10" x1="151.445" y1="366.92" x2="114.659" y2="292.743"/>

			<line fill="#00D2D3" stroke="#FFFFFF" stroke-width="5" stroke-linecap="round" stroke-miterlimit="10" x1="150.067" y1="453.355" x2="105.06" y2="382.495"/>
	</g>
</g>
<g id="bear">
	<g>
		<path fill="#E0E0E0" stroke="#636363" stroke-width="4" stroke-miterlimit="10" d="M64.99,408.997
			c73.359,84.515,162.633,89.798,212.926,84.299c14.849-1.869,26.268-4.674,33.316-6.306
			c-5.024-44.863-51.174-104.632-63.38-118.852c-32.895-35.127-26.54-74.771-21.537-86.856
			c50.979-29.28,67.141-87.346,66.783-105.605c-3.722-20.502-13.453-14.153-21.976-10.058c-16.354,8.689-29.676,0.597-38.574-4.096
			c-16.799-12.602-83.754,11.854-92.51,18.756c-1.653-6.555-23.018-11.761-34.203,4.097c-11.186,15.858,4.526,33.404,4.526,33.404
			C84.516,261.292,69.836,355.143,64.99,408.997z"/>
		<path fill="#C6C6C6" d="M224.5,279.569c0,0-29.75,23.021-65.098-3.594C190.25,304,239.166,454.789,226.315,491.635
			c39.479,3.451,74.38-3.38,83.018-5.968c-3.833-20.532-13.88-50.97-42.499-89.005C241.884,363.503,207.25,333.073,224.5,279.569z"
			/>
		<path fill="#C6C6C6" d="M113.168,179.828c0,0,14.061-1.208,18.298,8.51c2.99-2.242,8.368-5.171,8.368-5.171
			S133.968,169.333,113.168,179.828z"/>
		<path fill="#C6C6C6" d="M117.834,205.833c0,0,6.146-11.021,9.27-13.264c-6.348-3.739-11.936,0-11.936,0
			S108.834,199.366,117.834,205.833z"/>
		<path fill="#4D4D4D" d="M292.521,168.331c-3.43-9.991-10.42-9.345-16.164-5.561c0,0-9.565,6.088-2.837,16.945
			c6.729,10.857,19.562,7.741,19.562,7.741S296.82,180.854,292.521,168.331z"/>
		<path fill="none" stroke="#636363" stroke-width="3" stroke-linecap="round" stroke-miterlimit="10" d="M252.338,203.78
			c0,0,3.988,14.454,18.441,4.734"/>
	</g>
</g>
<g id="exclamation">
	<g>
		<path fill="#FF4B4C" d="M400.355,26c-40.328,0-73.022,32.693-73.022,73.023c0,17.921,6.467,34.325,17.181,47.032l-8.59,25.991
			l23.299-12.689c11.715,8.002,25.874,12.689,41.133,12.689c40.33,0,73.022-32.694,73.022-73.022
			C473.378,58.694,440.686,26,400.355,26z"/>
		<path fill="#FFFFFF" d="M395.297,116l-10.415-41.994c0,0,0.322-16.821,15.461-17.03c15.139-0.209,15.783,17.274,15.783,17.274
			L405.604,116H395.297z"/>
		<circle fill="#FFFFFF" cx="400.665" cy="133.582" r="8.053"/>
	</g>
</g>
</svg>
